<?xml version="1.0" encoding="UTF-8"?>
<svg width="512" height="512" viewBox="0 0 512 512" fill="none" xmlns="http://www.w3.org/2000/svg">
  <rect width="512" height="512" rx="256" fill="white"/>
  <path d="M256 96C256 96 160 224 160 304C160 373.9 203.1 416 256 416C308.9 416 352 373.9 352 304C352 224 256 96 256 96Z" fill="#E11D48"/>
  <path d="M256 128C256 128 180 232 180 300C180 356.9 213.1 388 256 388C298.9 388 332 356.9 332 300C332 232 256 128 256 128Z" fill="#F43F5E"/>
  <path d="M256 160C256 160 210 240 210 296C210 339.7 227.5 360 256 360C284.5 360 302 339.7 302 296C302 240 256 160 256 160Z" fill="#FB7185"/>
</svg> 